<svg width="384" height="90" viewBox="0 0 384 90" fill="none"
xmlns="http://www.w3.org/2000/svg">
<style>
    #e1{
        animation: logo 1.8s linear infinite;
    }

    #e2{
        animation: logo 1.8s linear infinite;
        animation-delay: calc(1.8s / 4 * -1);
    }
    
    #e3{
        animation: logo 1.8s linear infinite;
        animation-delay: calc(1.8s / 4 * -2);
    }

    #e4{
        animation: logo 1.8s linear infinite;
        animation-delay: calc(1.8s / 4 * -3);
    }

    @keyframes logo{
        0%, 100%{
            opacity: 0.3;
    }
    50%{
        opacity: 1;
    }
}
</style>

<g id="logo">
<g id="logo-texto">
<path id="l1" d="M11.4 48.1H33.6V39.5H11.4V29.1H36.6V20.2H0.399994V68.1H37.5V59.2H11.4V48.1Z" fill="white"/>
<path id="l2" d="M74.2 42.4C71.8 41.5 68.8 40.7 65.2 39.8C61.7 39 59.1 38.2 57.4 37.4C55.7 36.6 54.8 35.4 54.8 33.7C54.8 32 55.5 30.7 57 29.7C58.5 28.7 60.8 28.2 63.9 28.2C68.3 28.2 72.8 29.5 77.2 32L80.6 23.6C78.4 22.3 75.8 21.2 72.9 20.5C69.9 19.8 67 19.4 63.9 19.4C59.5 19.4 55.8 20.1 52.8 21.4C49.8 22.8 47.5 24.5 46 26.8C44.5 29.1 43.7 31.6 43.7 34.4C43.7 37.6 44.5 40.2 46.2 42.1C47.9 44 49.9 45.4 52.2 46.3C54.6 47.2 57.5 48 61.2 48.9C63.5 49.4 65.4 49.9 66.8 50.4C68.2 50.8 69.3 51.4 70.2 52.2C71.1 52.9 71.5 53.9 71.5 55C71.5 56.5 70.7 57.8 69.2 58.7C67.7 59.6 65.3 60.1 62.2 60.1C59.4 60.1 56.5 59.6 53.7 58.7C50.9 57.8 48.5 56.6 46.4 55.1L42.6 63.4C44.7 65 47.6 66.4 51.1 67.4C54.6 68.4 58.3 68.9 62.3 69C66.7 69 70.4 68.3 73.5 67C76.6 65.6 78.9 63.9 80.4 61.6C81.9 59.3 82.7 56.8 82.7 54.1C82.7 50.9 81.9 48.4 80.2 46.5C78.5 44.6 76.5 43.3 74.2 42.4Z" fill="white"/>
<path id="l3" d="M105.7 30.8C108 29.5 110.6 28.9 113.6 28.9C118.3 28.9 122.4 30.8 125.6 34.5L132.7 27.9C130.4 25.2 127.6 23.1 124.2 21.6C120.8 20.1 117.1 19.4 112.9 19.4C108 19.4 103.5 20.5 99.6 22.6C95.7 24.7 92.6 27.6 90.3 31.4C88 35.2 86.9 39.5 86.9 44.2C86.9 49 88 53.2 90.3 57C92.6 60.7 95.7 63.7 99.6 65.8C103.6 67.9 108 68.9 112.9 68.8C117.1 68.8 120.8 68.1 124.2 66.6C127.6 65.1 130.4 63 132.7 60.2L125.6 53.6C122.4 57.4 118.4 59.3 113.6 59.3C110.7 59.3 108 58.7 105.7 57.4C103.4 56.1 101.6 54.3 100.3 52C99 49.7 98.3 47.1 98.3 44.1C98.3 41.2 99 38.5 100.3 36.2C101.6 33.9 103.4 32.1 105.7 30.8Z" fill="white"/>
<path id="l4" d="M154.2 20.3L132.9 68.2H144.3L148.5 57.9H170.7L174.9 68.2H186.5L165.1 20.3H154.2ZM152 49.4L159.6 31.1L167.2 49.4H152Z" fill="white"/>
<path id="l5" d="M202.7 20.2H191.6V68.1H226.7V59.1H202.7V20.2Z" fill="white"/>
<path id="l6" d="M259.3 20.2H248.4L227 68.1H238.4L242.7 57.9H264.9L269.1 68.1H280.7L259.3 20.2ZM246.2 49.4L253.8 31.1L261.4 49.4H246.2Z" fill="white"/>
</g>
<g id="logo-z">
<path id="e4" d="M367.1 71.9H353.9H353.8L337.2 56.6C337.2 56.6 337.2 56.5 337.2 56.4L343.5 49.8C343.5 49.8 343.6 49.8 343.7 49.8L367.2 71.7C367.2 71.8 367.2 71.9 367.1 71.9Z" fill="white"/>
<path id="e3" d="M296.6 19H309.8H309.9L326.4 34.3C326.4 34.3 326.4 34.4 326.4 34.5L320.1 41.1C320.1 41.1 320 41.1 319.9 41.1L296.4 19.2C296.4 19.1 296.5 19 296.6 19Z" fill="white"/>
<path id="e2" d="M383.3 79.3H309.5C309.4 79.3 309.3 79.2 309.4 79.1L373 11.2L383.2 0.300006C383.3 0.200006 383.2 0.100006 383.1 0.100006H366.7H366.6L291.9 79.4L282.6 89.1C282.5 89.2 282.6 89.3 282.7 89.3H383.2C383.3 89.3 383.3 89.2 383.3 89.2V79.5C383.5 79.4 383.4 79.3 383.3 79.3Z" fill="url(#paint0_linear_4_3)"/>
<path id="e1" d="M296.4 11.1H349.1H349.2L359.5 0.2C359.6 0.1 359.5 0 359.4 0H296.4C296.3 0 296.3 0 296.3 0.1V11C296.3 11.1 296.3 11.1 296.4 11.1Z" fill="url(#paint1_linear_4_3)"/>
</g>
</g>
<defs>
<linearGradient id="paint0_linear_4_3" x1="274.618" y1="44.7" x2="386.259" y2="44.7" gradientUnits="userSpaceOnUse">
<stop offset="0.079193" stop-color="#2978BD"/>
<stop offset="0.2778" stop-color="#2C8FCD"/>
<stop offset="0.5228" stop-color="#37A7DB"/>
<stop offset="0.7183" stop-color="#41B6E3"/>
<stop offset="0.8385" stop-color="#44BBE6"/>
</linearGradient>
<linearGradient id="paint1_linear_4_3" x1="281.47" y1="5.55" x2="388.442" y2="5.55" gradientUnits="userSpaceOnUse">
<stop stop-color="#2978BD"/>
<stop offset="0.9994" stop-color="#44BBE6"/>
</linearGradient>
</defs>
</svg>
