<svg width="192" height="45" viewBox="0 0 192 45" fill="none"
xmlns="http://www.w3.org/2000/svg">
<style>
    #e1{
        animation: logo 1.8s linear infinite;
    }

    #e2{
        animation: logo 1.8s linear infinite;
        animation-delay: calc(1.8s / 4 * -1);
    }
    
    #e3{
        animation: logo 1.8s linear infinite;
        animation-delay: calc(1.8s / 4 * -2);
    }

    #e4{
        animation: logo 1.8s linear infinite;
        animation-delay: calc(1.8s / 4 * -3);
    }

    @keyframes logo{
        0%, 100%{
            opacity: 0.3;
    }
    50%{
        opacity: 1;
    }
}
</style>
<g id="logo-escala 1" clip-path="url(#clip0_1_2)">
<g id="logo">
<g id="logo-texto">
<path id="l1" d="M5.70002 24.05H16.8V19.75H5.70002V14.55H18.3V10.1H0.200012V34.05H18.75V29.6H5.70002V24.05Z" fill="white"/>
<path id="l2" d="M37.1 21.2C35.9 20.75 34.4 20.35 32.6 19.9C30.85 19.5 29.55 19.1 28.7 18.7C27.85 18.3 27.4 17.7 27.4 16.85C27.4 16 27.75 15.35 28.5 14.85C29.25 14.35 30.4 14.1 31.95 14.1C34.15 14.1 36.4 14.75 38.6 16L40.3 11.8C39.2 11.15 37.9 10.6 36.45 10.25C34.95 9.9 33.5 9.7 31.95 9.7C29.75 9.7 27.9 10.05 26.4 10.7C24.9 11.4 23.75 12.25 23 13.4C22.25 14.55 21.85 15.8 21.85 17.2C21.85 18.8 22.25 20.1 23.1 21.05C23.95 22 24.95 22.7 26.1 23.15C27.3 23.6 28.75 24 30.6 24.45C31.75 24.7 32.7 24.95 33.4 25.2C34.1 25.4 34.65 25.7 35.1 26.1C35.55 26.45 35.75 26.95 35.75 27.5C35.75 28.25 35.35 28.9 34.6 29.35C33.85 29.8 32.65 30.05 31.1 30.05C29.7 30.05 28.25 29.8 26.85 29.35C25.45 28.9 24.25 28.3 23.2 27.55L21.3 31.7C22.35 32.5 23.8 33.2 25.55 33.7C27.3 34.2 29.15 34.45 31.15 34.5C33.35 34.5 35.2 34.15 36.75 33.5C38.3 32.8 39.45 31.95 40.2 30.8C40.95 29.65 41.35 28.4 41.35 27.05C41.35 25.45 40.95 24.2 40.1 23.25C39.25 22.3 38.25 21.65 37.1 21.2Z" fill="white"/>
<path id="l3" d="M52.85 15.4C54 14.75 55.3 14.45 56.8 14.45C59.15 14.45 61.2 15.4 62.8 17.25L66.35 13.95C65.2 12.6 63.8 11.55 62.1 10.8C60.4 10.05 58.55 9.7 56.45 9.7C54 9.7 51.75 10.25 49.8 11.3C47.85 12.35 46.3 13.8 45.15 15.7C44 17.6 43.45 19.75 43.45 22.1C43.45 24.5 44 26.6 45.15 28.5C46.3 30.35 47.85 31.85 49.8 32.9C51.8 33.95 54 34.45 56.45 34.4C58.55 34.4 60.4 34.05 62.1 33.3C63.8 32.55 65.2 31.5 66.35 30.1L62.8 26.8C61.2 28.7 59.2 29.65 56.8 29.65C55.35 29.65 54 29.35 52.85 28.7C51.7 28.05 50.8 27.15 50.15 26C49.5 24.85 49.15 23.55 49.15 22.05C49.15 20.6 49.5 19.25 50.15 18.1C50.8 16.95 51.7 16.05 52.85 15.4Z" fill="white"/>
<path id="l4" d="M77.1 10.15L66.45 34.1H72.15L74.25 28.95H85.35L87.45 34.1H93.25L82.55 10.15H77.1ZM76 24.7L79.8 15.55L83.6 24.7H76Z" fill="white"/>
<path id="l5" d="M101.35 10.1H95.8V34.05H113.35V29.55H101.35V10.1Z" fill="white"/>
<path id="l6" d="M129.65 10.1H124.2L113.5 34.05H119.2L121.35 28.95H132.45L134.55 34.05H140.35L129.65 10.1ZM123.1 24.7L126.9 15.55L130.7 24.7H123.1Z" fill="white"/>
</g>
<g id="logo-z">
<path id="e4" d="M183.55 35.95H176.95H176.9L168.6 28.3C168.6 28.3 168.6 28.25 168.6 28.2L171.75 24.9C171.75 24.9 171.8 24.9 171.85 24.9L183.6 35.85C183.6 35.9 183.6 35.95 183.55 35.95Z" fill="white"/>
<path id="e3" d="M148.3 9.5H154.9H154.95L163.2 17.15C163.2 17.15 163.2 17.2 163.2 17.25L160.05 20.55C160.05 20.55 160 20.55 159.95 20.55L148.2 9.6C148.2 9.55 148.25 9.5 148.3 9.5Z" fill="white"/>
<path id="e2" d="M191.65 39.65H154.75C154.7 39.65 154.65 39.6 154.7 39.55L186.5 5.6L191.6 0.150003C191.65 0.100003 191.6 0.0500031 191.55 0.0500031H183.35H183.3L145.95 39.7L141.3 44.55C141.25 44.6 141.3 44.65 141.35 44.65H191.6C191.65 44.65 191.65 44.6 191.65 44.6V39.75C191.75 39.7 191.7 39.65 191.65 39.65Z" fill="url(#paint0_linear_1_2)"/>
<path id="e1" d="M148.2 5.55H174.55H174.6L179.75 0.1C179.8 0.05 179.75 0 179.7 0H148.2C148.15 0 148.15 0 148.15 0.05V5.5C148.15 5.55 148.15 5.55 148.2 5.55Z" fill="url(#paint1_linear_1_2)"/>
</g>
</g>
</g>
<defs>
<linearGradient id="paint0_linear_1_2" x1="137.309" y1="22.35" x2="193.13" y2="22.35" gradientUnits="userSpaceOnUse">
<stop offset="0.079193" stop-color="#2978BD"/>
<stop offset="0.2778" stop-color="#2C8FCD"/>
<stop offset="0.5228" stop-color="#37A7DB"/>
<stop offset="0.7183" stop-color="#41B6E3"/>
<stop offset="0.8385" stop-color="#44BBE6"/>
</linearGradient>
<linearGradient id="paint1_linear_1_2" x1="140.735" y1="2.775" x2="194.221" y2="2.775" gradientUnits="userSpaceOnUse">
<stop stop-color="#2978BD"/>
<stop offset="0.9994" stop-color="#44BBE6"/>
</linearGradient>
<clipPath id="clip0_1_2">
<rect width="192" height="45" fill="white"/>
</clipPath>
</defs>
</svg>
